<svg width="74" height="301" viewBox="0 0 74 301" fill="none" xmlns="http://www.w3.org/2000/svg">
<g clip-path="url(#clip0_372_403)">
<path d="M9.646 0L9.646 19.2318" stroke="#E11F26" stroke-width="2" stroke-miterlimit="10"/>
<path d="M19.2919 9.6159L0 9.6159" stroke="#E11F26" stroke-width="2" stroke-miterlimit="10"/>
<path d="M9.646 31.3076L9.646 50.5394" stroke="#E11F26" stroke-width="2" stroke-miterlimit="10"/>
<path d="M19.2919 40.9235L0 40.9235" stroke="#E11F26" stroke-width="2" stroke-miterlimit="10"/>
<path d="M34.7007 34.124L48.2996 47.7229" stroke="#E11F26" stroke-width="2" stroke-miterlimit="10"/>
<path d="M48.3209 34.1028L34.6794 47.7442" stroke="#E11F26" stroke-width="2" stroke-miterlimit="10"/>
<path d="M41.5 62.6152L41.5 81.8469" stroke="#E11F26" stroke-width="2" stroke-miterlimit="10"/>
<path d="M51.1459 72.231L31.854 72.231" stroke="#E11F26" stroke-width="2" stroke-miterlimit="10"/>
<path d="M41.5 93.9227L41.5 113.155" stroke="#E11F26" stroke-width="2" stroke-miterlimit="10"/>
<path d="M51.1459 103.539L31.854 103.539" stroke="#E11F26" stroke-width="2" stroke-miterlimit="10"/>
<path d="M2.84668 128.047L16.4456 141.646" stroke="#E11F26" stroke-width="2" stroke-miterlimit="10"/>
<path d="M16.4669 128.026L2.82544 141.667" stroke="#E11F26" stroke-width="2" stroke-miterlimit="10"/>
<path d="M41.5 125.23L41.5 144.462" stroke="#E11F26" stroke-width="2" stroke-miterlimit="10"/>
<path d="M51.1459 134.846L31.854 134.846" stroke="#E11F26" stroke-width="2" stroke-miterlimit="10"/>
<path d="M41.5 156.538L41.5 175.77" stroke="#E11F26" stroke-width="2" stroke-miterlimit="10"/>
<path d="M51.1459 166.154L31.854 166.154" stroke="#E11F26" stroke-width="2" stroke-miterlimit="10"/>
<path d="M41.5 187.845L41.5 207.077" stroke="#E11F26" stroke-width="2" stroke-miterlimit="10"/>
<path d="M51.1459 197.461L31.854 197.461" stroke="#E11F26" stroke-width="2" stroke-miterlimit="10"/>
<path d="M66.5547 190.662L80.1536 204.261" stroke="#E11F26" stroke-width="2" stroke-miterlimit="10"/>
<path d="M80.1749 190.641L66.5334 204.282" stroke="#E11F26" stroke-width="2" stroke-miterlimit="10"/>
<path d="M41.5 219.153L41.5 238.385" stroke="#E11F26" stroke-width="2" stroke-miterlimit="10"/>
<path d="M51.1459 228.769L31.854 228.769" stroke="#E11F26" stroke-width="2" stroke-miterlimit="10"/>
<path d="M73.354 219.153L73.354 238.385" stroke="#E11F26" stroke-width="2" stroke-miterlimit="10"/>
<path d="M82.9999 228.769L63.708 228.769" stroke="#E11F26" stroke-width="2" stroke-miterlimit="10"/>
<path d="M73.354 250.461L73.354 269.692" stroke="#E11F26" stroke-width="2" stroke-miterlimit="10"/>
<path d="M82.9999 260.077L63.708 260.077" stroke="#E11F26" stroke-width="2" stroke-miterlimit="10"/>
<path d="M73.3542 281.768L73.3542 301" stroke="#E11F26" stroke-width="2" stroke-miterlimit="10"/>
<path d="M83.0001 291.384L63.7083 291.384" stroke="#E11F26" stroke-width="2" stroke-miterlimit="10"/>
</g>
<defs>
<clipPath id="clip0_372_403">
<rect width="83" height="301" fill="white"/>
</clipPath>
</defs>
</svg>
