<svg width="79" height="301" viewBox="0 0 79 301" fill="none" xmlns="http://www.w3.org/2000/svg">
<g clip-path="url(#clip0_372_351)">
<path d="M37.5 301V281.768" stroke="#E11F26" stroke-width="2" stroke-miterlimit="10"/>
<path d="M27.854 291.384H47.1459" stroke="#E11F26" stroke-width="2" stroke-miterlimit="10"/>
<path d="M69.3541 269.692V250.461" stroke="#E11F26" stroke-width="2" stroke-miterlimit="10"/>
<path d="M59.7081 260.077H79" stroke="#E11F26" stroke-width="2" stroke-miterlimit="10"/>
<path d="M30.7005 266.876L44.2994 253.277" stroke="#E11F26" stroke-width="2" stroke-miterlimit="10"/>
<path d="M30.6793 253.256L44.3207 266.897" stroke="#E11F26" stroke-width="2" stroke-miterlimit="10"/>
<path d="M69.3541 238.385V219.153" stroke="#E11F26" stroke-width="2" stroke-miterlimit="10"/>
<path d="M59.7081 228.769H79" stroke="#E11F26" stroke-width="2" stroke-miterlimit="10"/>
<path d="M37.5 238.385V219.153" stroke="#E11F26" stroke-width="2" stroke-miterlimit="10"/>
<path d="M27.854 228.769H47.1459" stroke="#E11F26" stroke-width="2" stroke-miterlimit="10"/>
<path d="M37.5 207.077V187.845" stroke="#E11F26" stroke-width="2" stroke-miterlimit="10"/>
<path d="M27.854 197.461H47.1459" stroke="#E11F26" stroke-width="2" stroke-miterlimit="10"/>
<path d="M69.3541 175.77V156.538" stroke="#E11F26" stroke-width="2" stroke-miterlimit="10"/>
<path d="M59.7081 166.154H79" stroke="#E11F26" stroke-width="2" stroke-miterlimit="10"/>
<path d="M37.5 175.77V156.538" stroke="#E11F26" stroke-width="2" stroke-miterlimit="10"/>
<path d="M27.854 166.154H47.1459" stroke="#E11F26" stroke-width="2" stroke-miterlimit="10"/>
<path d="M37.5 144.462V125.23" stroke="#E11F26" stroke-width="2" stroke-miterlimit="10"/>
<path d="M27.854 134.846H47.1459" stroke="#E11F26" stroke-width="2" stroke-miterlimit="10"/>
<path d="M5.64594 144.462V125.23" stroke="#E11F26" stroke-width="2" stroke-miterlimit="10"/>
<path d="M-4.00002 134.846H15.2919" stroke="#E11F26" stroke-width="2" stroke-miterlimit="10"/>
<path d="M44.2995 110.338L30.7006 96.7392" stroke="#E11F26" stroke-width="2" stroke-miterlimit="10"/>
<path d="M30.6793 110.359L44.3207 96.718" stroke="#E11F26" stroke-width="2" stroke-miterlimit="10"/>
<path d="M5.64594 113.155V93.9227" stroke="#E11F26" stroke-width="2" stroke-miterlimit="10"/>
<path d="M-4.00002 103.539H15.2919" stroke="#E11F26" stroke-width="2" stroke-miterlimit="10"/>
<path d="M37.5 81.8469V62.6151" stroke="#E11F26" stroke-width="2" stroke-miterlimit="10"/>
<path d="M27.854 72.231H47.1459" stroke="#E11F26" stroke-width="2" stroke-miterlimit="10"/>
<path d="M5.64594 81.8469V62.6151" stroke="#E11F26" stroke-width="2" stroke-miterlimit="10"/>
<path d="M-4.00002 72.231H15.2919" stroke="#E11F26" stroke-width="2" stroke-miterlimit="10"/>
<path d="M5.64594 50.5394V31.3076" stroke="#E11F26" stroke-width="2" stroke-miterlimit="10"/>
<path d="M-4.00002 40.9235H15.2919" stroke="#E11F26" stroke-width="2" stroke-miterlimit="10"/>
<path d="M5.64594 19.2318V1.37389e-05" stroke="#E11F26" stroke-width="2" stroke-miterlimit="10"/>
<path d="M-4.00002 9.61591H15.2919" stroke="#E11F26" stroke-width="2" stroke-miterlimit="10"/>
</g>
<defs>
<clipPath id="clip0_372_351">
<rect width="83" height="301" fill="white" transform="matrix(-1 0 0 -1 79 301)"/>
</clipPath>
</defs>
</svg>
